<?xml version="1.0" encoding="utf-8"?>
<!-- Generator: Adobe Illustrator 23.0.0, SVG Export Plug-In . SVG Version: 6.00 Build 0)  -->
<svg version="1.1" id="Capa_1" xmlns="http://www.w3.org/2000/svg" xmlns:xlink="http://www.w3.org/1999/xlink" x="0px" y="0px"
	 viewBox="0 0 26.59 26.59" style="enable-background:new 0 0 26.59 26.59;" xml:space="preserve">
<style type="text/css">
	.st0{fill:#707D94;}
	.st1{fill:#FFFFFF;}
</style>
<g>
	<path class="st0" d="M13.29,2.63c-5.88,0-10.66,4.78-10.66,10.66s4.78,10.66,10.66,10.66s10.66-4.78,10.66-10.66
		S19.18,2.63,13.29,2.63z M13.29,22.52c-5.09,0-9.23-4.14-9.23-9.23s4.14-9.23,9.23-9.23s9.23,4.14,9.23,9.23
		S18.38,22.52,13.29,22.52z"/>
	<circle class="st1" cx="13.29" cy="13.29" r="9.23"/>
	<path class="st0" d="M18.1,12.91h-4.42V8.68c0-0.21-0.17-0.38-0.38-0.38c-0.21,0-0.38,0.17-0.38,0.38v4.23H8.49
		c-0.21,0-0.38,0.17-0.38,0.38s0.17,0.38,0.38,0.38h4.42v4.62c0,0.21,0.17,0.38,0.38,0.38c0.21,0,0.38-0.17,0.38-0.38v-4.62h4.42
		c0.21,0,0.38-0.17,0.38-0.38S18.31,12.91,18.1,12.91z"/>
</g>
</svg>
