<?xml version="1.0" encoding="utf-8"?>
<!-- Generator: Adobe Illustrator 23.0.0, SVG Export Plug-In . SVG Version: 6.00 Build 0)  -->
<svg version="1.1" id="Capa_1" xmlns="http://www.w3.org/2000/svg" xmlns:xlink="http://www.w3.org/1999/xlink" x="0px" y="0px"
	 viewBox="0 0 283 283" style="enable-background:new 0 0 283 283;" xml:space="preserve">
<style type="text/css">
	.st0{fill:#707D94;}
</style>
<g>
	<path class="st0" d="M145.21,202.62V91.85c0-2.05-1.66-3.71-3.71-3.71s-3.71,1.66-3.71,3.71v110.77c0,2.05,1.66,3.71,3.71,3.71
		S145.21,204.67,145.21,202.62z"/>
	<path class="st0" d="M252.79,63.98c-7.84,0-17.62-3.38-27.96-6.97c-13.1-4.54-27.96-9.68-43.36-9.68
		c-17.82,0-28.7,7.81-34.68,14.36c-2.24,2.45-3.97,4.91-5.29,7.09c-1.31-2.18-3.05-4.64-5.29-7.09
		c-5.98-6.55-16.86-14.36-34.68-14.36c-15.4,0-30.26,5.14-43.36,9.68c-10.35,3.58-20.12,6.97-27.96,6.97
		c-2.05,0-3.71,1.66-3.71,3.71v149.42c0,2.05,1.66,3.71,3.71,3.71c9.09,0,19.44-3.58,30.39-7.38c12.55-4.35,26.78-9.27,40.93-9.27
		c12.14,0,21.96,4.02,29.2,11.95c1.38,1.51,3.73,1.62,5.24,0.24c1.51-1.38,1.62-3.73,0.24-5.24c-5.98-6.55-16.86-14.36-34.68-14.36
		c-15.4,0-30.26,5.14-43.36,9.68c-8.77,3.04-17.13,5.93-24.25,6.74V71.22c8.16-0.78,17.19-3.91,26.68-7.19
		c12.55-4.35,26.78-9.27,40.93-9.27c28.63,0,36.12,22.73,36.42,23.69c0.48,1.56,1.92,2.62,3.55,2.62s3.07-1.06,3.55-2.62
		c0.07-0.24,7.61-23.69,36.42-23.69c14.16,0,28.38,4.93,40.93,9.27c9.49,3.29,18.52,6.41,26.68,7.19v141.96
		c-7.12-0.81-15.48-3.71-24.25-6.74c-13.1-4.54-27.96-9.68-43.36-9.68c-17.82,0-28.7,7.81-34.68,14.36
		c-1.38,1.51-1.28,3.86,0.24,5.24c1.51,1.38,3.86,1.28,5.24-0.24c7.24-7.93,17.06-11.95,29.2-11.95c14.16,0,28.38,4.93,40.93,9.27
		c10.95,3.79,21.3,7.38,30.39,7.38c2.05,0,3.71-1.66,3.71-3.71V67.69C256.5,65.64,254.84,63.98,252.79,63.98z"/>
	<path class="st0" d="M252.79,228.24c-7.84,0-17.62-3.38-27.96-6.97c-13.1-4.54-27.96-9.68-43.36-9.68
		c-16.74,0-27.35,6.89-33.53,13.16l-12.87,0c-6.19-6.27-16.79-13.15-33.53-13.15c-15.4,0-30.26,5.14-43.36,9.68
		c-10.35,3.58-20.12,6.97-27.96,6.97c-2.05,0-3.71,1.66-3.71,3.71s1.66,3.71,3.71,3.71c9.09,0,19.44-3.58,30.39-7.38
		c12.55-4.35,26.78-9.27,40.93-9.27c12.14,0,21.96,4.02,29.2,11.95c0.7,0.77,1.7,1.21,2.74,1.21l16.05,0c1.04,0,2.04-0.44,2.74-1.21
		c7.24-7.93,17.06-11.95,29.2-11.95c14.16,0,28.38,4.93,40.93,9.27c10.95,3.79,21.3,7.38,30.39,7.38c2.05,0,3.71-1.66,3.71-3.71
		S254.84,228.24,252.79,228.24z"/>
</g>
</svg>
