<?xml version="1.0" encoding="utf-8"?>
<!-- Generator: Adobe Illustrator 23.0.0, SVG Export Plug-In . SVG Version: 6.00 Build 0)  -->
<svg version="1.1" id="Layer_1" xmlns="http://www.w3.org/2000/svg" xmlns:xlink="http://www.w3.org/1999/xlink" x="0px" y="0px"
	 viewBox="0 0 512 512" style="enable-background:new 0 0 512 512;" xml:space="preserve">
<style type="text/css">
	.st0{fill:#707D94;}
</style>
<path class="st0" d="M266.5,321.45c-1.34-1.34-3.5-1.34-4.83,0c-1.34,1.34-1.34,3.5,0,4.83l15.83,15.83c0.67,0.67,1.54,1,2.42,1
	c0.87,0,1.75-0.33,2.42-1c1.34-1.34,1.34-3.5,0-4.83L266.5,321.45z"/>
<path class="st0" d="M256,302.12c-1.89,0-3.42,1.53-3.42,3.42v8.84l-22.92,22.92c-1.34,1.34-1.34,3.5,0,4.83
	c0.67,0.67,1.54,1,2.42,1c0.87,0,1.75-0.33,2.42-1l23.92-23.92c0.64-0.64,1-1.51,1-2.42v-10.25
	C259.42,303.65,257.89,302.12,256,302.12z"/>
<path class="st0" d="M355.08,162.72h-95.67v-3.22c0-1.79-1.29-3.42-3.07-3.59c-2.05-0.2-3.76,1.4-3.76,3.4v3.42h-95.67
	c-1.89,0-3.42,1.53-3.42,3.42v13.67c0,1.89,1.53,3.42,3.42,3.42H337c1.79,0,3.41-1.28,3.59-3.06c0.21-2.05-1.39-3.77-3.4-3.77
	H160.33v-6.83h191.33v6.83h-3.42c-1.89,0-3.42,1.53-3.42,3.42v107.79c0,2.74-2.22,4.96-4.96,4.96H172.13
	c-2.74,0-4.96-2.22-4.96-4.96V190.8c0-1.79-1.29-3.42-3.07-3.59c-2.05-0.2-3.76,1.4-3.76,3.4v96.97c0,6.52,5.28,11.8,11.8,11.8
	h167.74c6.52,0,11.8-5.28,11.8-11.8V183.22h3.42c1.89,0,3.42-1.53,3.42-3.42v-13.67C358.5,164.25,356.97,162.72,355.08,162.72z"/>
<path class="st0" d="M307.25,213.28c9.64,0,10.23,8.55,10.25,10.27c0.01,1.88,1.53,3.4,3.42,3.4c1.89,0,3.42-1.53,3.42-3.42
	c0-5.91-3.57-17.08-17.08-17.08c-13.51,0-17.08,11.17-17.08,17.08v13.67c0,5.91,3.57,17.08,17.08,17.08
	c13.51,0,17.08-11.18,17.08-17.08c0-1.88-1.52-3.4-3.4-3.41h-0.02c-1.87,0-3.4,1.51-3.42,3.39c-0.02,1.72-0.6,10.27-10.25,10.27
	S297.02,238.9,297,237.2v-13.65C297.02,221.84,297.6,213.28,307.25,213.28z"/>
<path class="st0" d="M222.1,245.35c0.55,1.31,1.81,2.1,3.15,2.1c0.44,0,0.88-0.08,1.32-0.26c1.74-0.73,2.57-2.73,1.84-4.47
	l-17.08-41c-0.53-1.27-1.78-2.1-3.15-2.1c-1.38,0-2.62,0.83-3.15,2.1l-17.08,41c-0.73,1.74,0.1,3.74,1.84,4.47
	c1.75,0.73,3.74-0.1,4.47-1.84l1.97-4.73h12.68c1.89,0,3.42-1.53,3.42-3.42s-1.53-3.42-3.42-3.42h-9.84l9.11-21.87L222.1,245.35z"/>
<path class="st0" d="M245.4,220.13c-1.78,0.18-3.07,1.8-3.07,3.59v40.81c0,1.89,1.53,3.42,3.42,3.42h13.67
	c5.91,0,17.08-2.86,17.08-13.67c0-4.34-1.8-7.39-4.33-9.5c2.87-2.46,4.33-6.16,4.33-11c0-5.06-1.6-8.88-4.74-11.33
	c-5.22-4.08-16.62-2.43-17.42-2.23c-1.83,0.46-2.95,2.31-2.49,4.14c0.46,1.83,2.31,2.94,4.14,2.48c0.05-0.01,8.94-1.05,11.56,0.99
	c1.4,1.09,2.11,3.09,2.11,5.95c0,2.84-0.7,4.84-2.09,5.93c-1.14,0.9-2.73,1.22-4.17,1.27c-1.45,0-2.82,0-3.99,0
	c-1.73,0-3.18,1.4-3.39,3.12c-0.22,1.71,0.78,3.73,2.56,3.73c0.45,0,1.22-0.01,2.35-0.01c1.7,0,3.42,0.29,4.96,1.02
	c2.04,0.98,3.76,2.63,3.76,5.43c0,6.69-9.84,6.83-10.25,6.83h-10.25v-37.58C249.17,221.53,247.45,219.93,245.4,220.13z"/>
</svg>
