<?xml version="1.0" encoding="utf-8"?>
<!-- Generator: Adobe Illustrator 23.0.0, SVG Export Plug-In . SVG Version: 6.00 Build 0)  -->
<svg version="1.1" id="Слой_1" xmlns="http://www.w3.org/2000/svg" xmlns:xlink="http://www.w3.org/1999/xlink" x="0px" y="0px"
	 viewBox="0 0 17 16.52" style="enable-background:new 0 0 17 16.52;" xml:space="preserve">
<style type="text/css">
	.st0{fill:#888C91;}
</style>
<g>
	<path class="st0" d="M1.53,7.79L0.95,8.6C0.84,8.72,0.72,8.72,0.72,8.72c-0.23,0-0.46-0.23-0.46-0.46c0-0.12,0.12-0.35,0.23-0.46
		l1.28-1.51C1.88,6.16,2,6.05,2.11,6.05c0.23,0,0.46,0.12,0.46,0.46v9.4c0,0.23-0.35,0.46-0.58,0.46s-0.58-0.12-0.58-0.46V7.79H1.53
		z"/>
	<path class="st0" d="M6.99,3.14c1.63,0,2.9,1.16,2.9,2.67c0,3.02-4.64,3.95-4.64,5.69v0.7h4.3c0.23,0,0.35,0.23,0.35,0.58
		c0,0.23-0.23,0.58-0.35,0.58H4.55c-0.23,0-0.58-0.12-0.58-0.46V11.5c0-2.32,4.64-3.37,4.64-5.69c0-0.81-0.58-1.63-1.74-1.63
		c-0.81,0-1.51,0.58-1.51,1.51c0,0.23-0.23,0.46-0.58,0.46c-0.35,0-0.58-0.12-0.58-0.58C4.2,4.07,5.48,3.14,6.99,3.14z"/>
	<path class="st0" d="M15.47,7.56V7.21c0-1.16-0.7-1.74-1.86-1.74c-0.35,0-0.35-0.23-0.35-0.46c0-0.23,0.12-0.46,0.35-0.46
		c1.04,0,1.63-0.35,1.63-1.63c0-1.16-0.46-1.63-1.51-1.63c-1.28,0-1.63,0.7-1.63,1.39c0,0.35-0.12,0.46-0.58,0.46
		s-0.58-0.12-0.58-0.58c0-0.81,0.58-2.32,2.79-2.32c1.51,0,2.67,0.7,2.67,2.44c0,1.16-0.46,2.09-1.16,2.32
		c0.81,0.35,1.51,1.04,1.51,2.21v0.23c0,2.21-1.39,3.02-3.02,3.02c-2.09,0-3.02-1.28-3.02-2.32c0-0.46,0.12-0.58,0.58-0.58
		c0.46,0,0.58,0.12,0.58,0.46c0,0.58,0.46,1.39,1.86,1.39C14.89,9.41,15.47,8.83,15.47,7.56z"/>
</g>
</svg>
