<?xml version="1.0" encoding="utf-8"?>
<!-- Generator: Adobe Illustrator 23.0.0, SVG Export Plug-In . SVG Version: 6.00 Build 0)  -->
<svg version="1.1" id="Capa_1" xmlns="http://www.w3.org/2000/svg" xmlns:xlink="http://www.w3.org/1999/xlink" x="0px" y="0px"
	 viewBox="0 0 263.82 263.82" style="enable-background:new 0 0 263.82 263.82;" xml:space="preserve">
<style type="text/css">
	.st0{fill:none;stroke:#707D94;stroke-width:8;stroke-miterlimit:10;}
	.st1{fill:none;stroke:#707D94;stroke-width:8;stroke-linecap:round;stroke-miterlimit:10;}
</style>
<path class="st0" d="M159.34,231.91H66.9c-7.74,0-14.01-6.27-14.01-14.01V82.89c0-7.74,6.27-14.01,14.01-14.01h92.44
	c7.74,0,14.01,6.27,14.01,14.01V217.9C173.35,225.64,167.08,231.91,159.34,231.91z"/>
<path class="st1" d="M90.47,48.76v-6.98c0-5.45,4.42-9.87,9.87-9.87h100.71c5.45,0,9.87,4.42,9.87,9.87v143.29
	c0,5.45-4.42,9.87-9.87,9.87h-7.06"/>
<line class="st1" x1="78.91" y1="104.74" x2="147.33" y2="104.74"/>
<line class="st1" x1="78.91" y1="135.18" x2="147.33" y2="135.18"/>
<line class="st1" x1="78.91" y1="165.61" x2="147.33" y2="165.61"/>
<line class="st1" x1="78.91" y1="196.05" x2="147.33" y2="196.05"/>
</svg>
