<?xml version="1.0" encoding="utf-8"?>
<!-- Generator: Adobe Illustrator 23.0.0, SVG Export Plug-In . SVG Version: 6.00 Build 0)  -->
<svg version="1.1" id="Capa_1" xmlns="http://www.w3.org/2000/svg" xmlns:xlink="http://www.w3.org/1999/xlink" x="0px" y="0px"
	 viewBox="0 0 21.85 23.17" style="enable-background:new 0 0 21.85 23.17;" xml:space="preserve">
<style type="text/css">
	.st0{fill:#F0F1F5;}
</style>
<g>
	<path class="st0" d="M2.53,12.11c0-0.02,0.02-0.07,0.02-0.15l2.67-8.7c0.12-0.42,0.64-0.61,1.15-0.61c0.54,0,1.03,0.2,1.17,0.61
		l2.67,8.7c0.02,0.07,0.02,0.12,0.02,0.15c0,0.44-0.66,0.76-1.12,0.76c-0.29,0-0.54-0.1-0.61-0.37l-0.54-1.83H4.77L4.24,12.5
		c-0.07,0.27-0.29,0.37-0.61,0.37C3.19,12.87,2.53,12.55,2.53,12.11z M7.59,9.25L6.36,5l-1.2,4.25H7.59z"/>
</g>
<g>
	<path class="st0" d="M12.75,10.86c0-0.37,0.39-0.56,0.78-0.56h2.67c1.44,0,2.79,0.46,2.79,2.45c0,1.12-0.44,1.88-1.17,2.2
		c0.86,0.34,1.42,0.88,1.42,2.25v0.29c0,2.15-1.2,2.93-2.76,2.93h-2.93c-0.49,0-0.78-0.27-0.78-0.56L12.75,10.86z M14.53,14.24h1.56
		c0.76,0,1.1-0.49,1.1-1.2s-0.42-1.17-1.12-1.17h-1.54L14.53,14.24z M16.1,18.83c0.86,0,1.34-0.46,1.34-1.52V17.1
		c0-1.08-0.49-1.47-1.34-1.47h-1.56v3.2H16.1z"/>
</g>
</svg>
