<?xml version="1.0" encoding="utf-8"?>
<!-- Generator: Adobe Illustrator 23.0.0, SVG Export Plug-In . SVG Version: 6.00 Build 0)  -->
<svg version="1.1" id="Capa_1" xmlns="http://www.w3.org/2000/svg" xmlns:xlink="http://www.w3.org/1999/xlink" x="0px" y="0px"
	 viewBox="0 0 29.67 20.86" style="enable-background:new 0 0 29.67 20.86;" xml:space="preserve">
<style type="text/css">
	.st0{fill:#F0F1F5;}
</style>
<g>
	<path class="st0" d="M6.89,13.71c-0.73-0.42-1.28-1.02-1.72-1.75c-0.44-0.73-0.65-1.51-0.65-2.38C4.54,8.9,4.69,8.3,5.03,7.75
		c0.13-0.21,0.24-0.26,0.31-0.29c0.21-0.08,0.55-0.08,0.86,0.1C6.52,7.75,6.6,8.12,6.6,8.22c0,0.05,0,0.1-0.05,0.21
		C6.52,8.51,6.49,8.56,6.47,8.61C6.31,8.93,6.23,9.32,6.23,9.76c0,0.5,0.13,0.99,0.39,1.46c0.26,0.47,0.63,0.84,1.1,1.12
		s0.97,0.42,1.51,0.42c0.84,0,1.57-0.26,2.14-0.78c0.57-0.52,0.86-1.18,0.86-1.96c0-0.57-0.13-1.07-0.42-1.49
		c-0.29-0.42-0.68-0.81-1.15-1.2L9.97,6.81C9.37,6.39,8.9,5.98,8.61,5.58C8.32,5.19,8.19,4.62,8.19,3.91
		c0.03-0.34,0.34-0.6,0.86-0.6c0.55,0,0.86,0.31,0.86,0.6c0,0.37,0.08,0.68,0.26,0.89c0.18,0.21,0.47,0.47,0.91,0.76
		c0.1,0.08,0.24,0.16,0.37,0.26c0.13,0.1,0.29,0.21,0.44,0.37c0.6,0.47,1.1,0.99,1.49,1.59c0.39,0.6,0.6,1.33,0.6,2.22
		c0,0.81-0.21,1.54-0.63,2.22c-0.42,0.68-0.99,1.18-1.72,1.57c-0.73,0.39-1.51,0.57-2.38,0.57C8.37,14.36,7.59,14.12,6.89,13.71z"/>
</g>
<path class="st0" d="M19.97,10.31c0.05,0,0.1-0.03,0.16-0.05h4.23c0.39,0,0.71-0.31,0.71-0.71s-0.31-0.71-0.71-0.71h-7.6
	c-0.39,0-0.71,0.31-0.71,0.71s0.31,0.71,0.71,0.71h0.52c-0.94,1.02-1.44,2.45-1.15,4c0.34,1.78,1.78,3.19,3.55,3.53
	c1.96,0.37,3.73-0.52,4.67-2.01c0.31-0.47-0.03-1.1-0.6-1.1l0,0c-0.24,0-0.47,0.1-0.6,0.31c-0.65,1.04-1.91,1.67-3.29,1.38
	c-1.18-0.24-2.12-1.18-2.35-2.35C17.15,12.24,18.35,10.62,19.97,10.31z"/>
</svg>
