<?xml version="1.0" encoding="utf-8"?>
<!-- Generator: Adobe Illustrator 23.0.2, SVG Export Plug-In . SVG Version: 6.00 Build 0)  -->
<svg version="1.1" id="Capa_1" xmlns="http://www.w3.org/2000/svg" xmlns:xlink="http://www.w3.org/1999/xlink" x="0px" y="0px"
	 viewBox="0 0 64.8 64.8" style="enable-background:new 0 0 64.8 64.8;" xml:space="preserve">
<style type="text/css">
	.st0{fill:#FFFFFF;}
</style>
<g>
	<g>
		<g>
			<path class="st0" d="M32.4,44.9H21.1c-0.7,0-1.2-0.6-1.2-1.2V21.2c0-0.7,0.6-1.2,1.2-1.2h11.3c0.7,0,1.2-0.6,1.2-1.2
				s-0.6-1.3-1.2-1.3H21.1c-2.1,0-3.7,1.7-3.7,3.8v22.5c0,2.1,1.7,3.7,3.7,3.7h11.3c0.7,0,1.2-0.6,1.2-1.2S33.1,44.9,32.4,44.9z"/>
		</g>
	</g>
	<g>
		<g>
			<path class="st0" d="M47.1,31.5L39.5,24c-0.5-0.5-1.3-0.5-1.8,0c-0.5,0.5-0.5,1.3,0,1.8l5.4,5.4H28.6c-0.7,0-1.2,0.6-1.2,1.2
				c0,0.7,0.6,1.3,1.2,1.3h14.6L37.7,39c-0.5,0.5-0.5,1.3,0,1.8c0.2,0.2,0.6,0.4,0.9,0.4c0.3,0,0.6-0.1,0.9-0.4l7.6-7.5
				c0.2-0.2,0.4-0.6,0.4-0.9C47.5,32.1,47.3,31.8,47.1,31.5z"/>
		</g>
	</g>
</g>
</svg>
