<?xml version="1.0" encoding="utf-8"?>
<!-- Generator: Adobe Illustrator 23.0.0, SVG Export Plug-In . SVG Version: 6.00 Build 0)  -->
<svg version="1.1" id="Capa_1" xmlns="http://www.w3.org/2000/svg" xmlns:xlink="http://www.w3.org/1999/xlink" x="0px" y="0px"
	 viewBox="0 0 21.22 16.36" style="enable-background:new 0 0 21.22 16.36;" xml:space="preserve">
<style type="text/css">
	.st0{fill:#888C91;}
</style>
<g>
	<path class="st0" d="M17.69,2.18H3.53c-0.75,0-1.36,0.61-1.36,1.36v9.28c0,0.75,0.61,1.36,1.36,1.36h14.16
		c0.75,0,1.37-0.61,1.37-1.36V3.54C19.06,2.79,18.44,2.18,17.69,2.18z M3.53,2.72h14.16c0.14,0,0.28,0.03,0.39,0.11l-6.82,5.95
		c-0.35,0.3-0.94,0.3-1.28,0L3.14,2.82C3.25,2.76,3.39,2.72,3.53,2.72z M18.51,12.82c0,0.46-0.36,0.82-0.82,0.82H3.53
		c-0.46,0-0.82-0.36-0.82-0.82V3.54c0-0.11,0.03-0.21,0.07-0.31l5.53,4.83l-3.12,2.92c-0.11,0.1-0.12,0.28-0.01,0.39
		c0.05,0.05,0.13,0.08,0.19,0.08c0.07,0,0.14-0.03,0.19-0.08L8.7,8.44c0.01-0.01,0.02-0.02,0.02-0.03l0.9,0.78
		c0.28,0.24,0.64,0.36,1,0.36c0.35,0,0.72-0.13,1-0.36l0.9-0.78c0,0.01,0.01,0.02,0.02,0.03l3.13,2.94
		c0.05,0.05,0.12,0.08,0.19,0.08c0.08,0,0.14-0.03,0.19-0.08c0.11-0.11,0.1-0.29-0.01-0.39l-3.12-2.92l5.53-4.83
		c0.04,0.1,0.07,0.2,0.07,0.31V12.82z"/>
</g>
</svg>
