<?xml version="1.0" encoding="utf-8"?>
<!-- Generator: Adobe Illustrator 23.0.0, SVG Export Plug-In . SVG Version: 6.00 Build 0)  -->
<svg version="1.1" id="Capa_1" xmlns="http://www.w3.org/2000/svg" xmlns:xlink="http://www.w3.org/1999/xlink" x="0px" y="0px"
	 viewBox="0 0 32.06 29.06" style="enable-background:new 0 0 32.06 29.06;" xml:space="preserve">
<style type="text/css">
	.st0{fill:#F0F1F5;}
</style>
<path class="st0" d="M13.66,15.53l-6.3-6.3c-0.42-0.42-0.42-1.08,0-1.47l0,0c0.42-0.42,1.05-0.42,1.47,0l6.3,6.3
	c0.42,0.42,0.42,1.05,0,1.47l0,0C14.74,15.95,14.08,15.95,13.66,15.53z"/>
<path class="st0" d="M7.36,14.06l6.3-6.3c0.42-0.42,1.05-0.42,1.47,0l0,0c0.42,0.42,0.42,1.05,0,1.47l-6.3,6.3
	c-0.42,0.42-1.05,0.42-1.47,0l0,0C6.95,15.14,6.95,14.48,7.36,14.06z"/>
<path class="st0" d="M25,20.41h-8.93c-0.58,0-1.03-0.47-1.03-1.03l0,0c0-0.58,0.47-1.03,1.03-1.03H25c0.58,0,1.05,0.47,1.05,1.03
	l0,0C26.03,19.97,25.58,20.41,25,20.41z"/>
<circle class="st0" cx="20.54" cy="22.94" r="1.41"/>
<circle class="st0" cx="20.54" cy="15.84" r="1.41"/>
</svg>
