<?xml version="1.0" encoding="utf-8"?>
<!-- Generator: Adobe Illustrator 23.0.2, SVG Export Plug-In . SVG Version: 6.00 Build 0)  -->
<svg version="1.1" id="Capa_1" xmlns="http://www.w3.org/2000/svg" xmlns:xlink="http://www.w3.org/1999/xlink" x="0px" y="0px"
	 viewBox="0 0 60 60" style="enable-background:new 0 0 60 60;" xml:space="preserve">
<style type="text/css">
	.st0{fill:#888C91;}
</style>
<path class="st0" d="M36,34.3l-3.2-1.6c-0.3-0.2-0.5-0.5-0.5-0.8v-1.1c0.1-0.1,0.2-0.2,0.2-0.3c0.4-0.6,0.7-1.2,1-1.9
	c0.5-0.2,0.8-0.7,0.8-1.2V26c0-0.3-0.1-0.6-0.3-0.9v-1.8c0-0.2,0.1-1.3-0.7-2.2C32.6,20.4,31.5,20,30,20s-2.6,0.4-3.3,1.2
	c-0.8,0.9-0.7,2-0.7,2.2v1.8c-0.2,0.2-0.3,0.6-0.3,0.9v1.3c0,0.4,0.2,0.8,0.5,1c0.3,1.2,0.9,2.1,1.2,2.4v1.1c0,0.3-0.2,0.6-0.5,0.8
	l-3,1.6c-1,0.5-1.6,1.5-1.6,2.6V38c0,1.6,5,2,7.7,2s7.7-0.4,7.7-2v-1C37.7,35.8,37,34.8,36,34.3z M37,38c0,0.5-2.5,1.3-7,1.3
	s-7-0.9-7-1.3v-1.1c0-0.9,0.5-1.6,1.2-2.1l3-1.6c0.5-0.3,0.8-0.8,0.8-1.4v-1.3l-0.1-0.1c0,0-0.8-1-1.1-2.4l0-0.1l-0.1-0.1
	c-0.2-0.1-0.3-0.3-0.3-0.6V26c0-0.2,0.1-0.4,0.2-0.5l0.1-0.1v-2.1l0,0c0,0-0.1-0.9,0.5-1.7c0.6-0.6,1.5-0.9,2.8-0.9
	c1.3,0,2.2,0.3,2.8,0.9c0.6,0.7,0.5,1.7,0.5,1.7l0,2.1l0.1,0.1c0.1,0.1,0.2,0.3,0.2,0.5v1.3c0,0.3-0.2,0.5-0.5,0.6L33,28L33,28.2
	c-0.2,0.7-0.5,1.3-0.9,1.9c-0.1,0.1-0.2,0.3-0.3,0.4l-0.1,0.1v1.4c0,0.6,0.3,1.1,0.9,1.4l3.2,1.6c0.8,0.4,1.3,1.2,1.3,2.1V38z"/>
</svg>
