<?xml version="1.0" encoding="utf-8"?>
<!-- Generator: Adobe Illustrator 23.0.0, SVG Export Plug-In . SVG Version: 6.00 Build 0)  -->
<svg version="1.1" id="Capa_1" xmlns="http://www.w3.org/2000/svg" xmlns:xlink="http://www.w3.org/1999/xlink" x="0px" y="0px"
	 viewBox="0 0 15.64 19.23" style="enable-background:new 0 0 15.64 19.23;" xml:space="preserve">
<style type="text/css">
	.st0{fill:#888C91;stroke:#888C91;stroke-width:0.25;stroke-miterlimit:10;}
</style>
<g>
	<path class="st0" d="M12.95,7.44V5.65c0-2.57-2.34-4.69-5.13-4.69S2.68,3.09,2.68,5.65v1.79c-1.12,0.22-1.9,1.12-1.9,2.23v6.25
		c0,1.23,1,2.34,2.34,2.34h9.49c1.23,0,2.34-1,2.34-2.34V9.67C14.84,8.56,14.06,7.55,12.95,7.44z M3.35,5.65
		c0-2.23,2.01-4.02,4.46-4.02s4.46,1.79,4.46,4.02v1.79H3.35L3.35,5.65z M14.17,15.92c0,0.89-0.78,1.67-1.67,1.67H3.12
		c-0.89,0-1.67-0.78-1.67-1.67V9.67C1.45,8.78,2.23,8,3.12,8h9.49c0.89,0,1.56,0.78,1.56,1.67V15.92z"/>
	<path class="st0" d="M7.81,9.9c-0.67,0-1.23,0.56-1.23,1.34v1.9c0,0.67,0.56,1.23,1.23,1.23s1.23-0.56,1.23-1.23v-1.9
		C9.04,10.45,8.48,9.9,7.81,9.9z M8.48,13.13c0,0.33-0.33,0.67-0.67,0.67s-0.67-0.33-0.67-0.67v-1.9c0-0.33,0.33-0.67,0.67-0.67
		s0.67,0.33,0.67,0.67V13.13z"/>
</g>
</svg>
