<?xml version="1.0" encoding="utf-8"?>
<!-- Generator: Adobe Illustrator 23.0.0, SVG Export Plug-In . SVG Version: 6.00 Build 0)  -->
<svg version="1.1" id="Layer_1" xmlns="http://www.w3.org/2000/svg" xmlns:xlink="http://www.w3.org/1999/xlink" x="0px" y="0px"
	 viewBox="0 0 289.53 289.53" style="enable-background:new 0 0 289.53 289.53;" xml:space="preserve">
<style type="text/css">
	.st0{fill:#707D94;}
</style>
<g>
	<path class="st0" d="M150.76,120.52c19.05,0,34.5-15.45,34.5-34.5s-15.45-34.5-34.5-34.5s-34.5,15.45-34.5,34.5
		C116.29,105.06,131.72,120.5,150.76,120.52z M150.76,59.18c14.82,0,26.83,12.01,26.83,26.83s-12.01,26.83-26.83,26.83
		c-14.82,0-26.83-12.01-26.83-26.83C123.95,71.2,135.95,59.2,150.76,59.18z"/>
	<path class="st0" d="M70.26,109.02c10.58,0,19.17-8.58,19.17-19.17s-8.58-19.17-19.17-19.17S51.1,79.27,51.1,89.85
		C51.11,100.43,59.68,109,70.26,109.02z M70.26,78.35c6.35,0,11.5,5.15,11.5,11.5s-5.15,11.5-11.5,11.5s-11.5-5.15-11.5-11.5
		S63.91,78.35,70.26,78.35z"/>
	<path class="st0" d="M231.26,109.02c10.58,0,19.17-8.58,19.17-19.17s-8.58-19.17-19.17-19.17c-10.58,0-19.17,8.58-19.17,19.17
		C212.11,100.43,220.68,109,231.26,109.02z M231.26,78.35c6.35,0,11.5,5.15,11.5,11.5s-5.15,11.5-11.5,11.5
		c-6.35,0-11.5-5.15-11.5-11.5S224.91,78.35,231.26,78.35z"/>
	<path class="st0" d="M246.6,109.02c-0.83,0-1.64,0.27-2.3,0.77l-13.03,9.77l-13.03-9.77c-0.66-0.5-1.47-0.77-2.3-0.77
		c-6.31-0.01-12.21,3.12-15.74,8.35c-5.82-2.95-12.24-4.49-18.76-4.52c-1.02,0-1.99,0.4-2.71,1.12l-27.96,27.96l-27.96-27.96
		c-0.72-0.72-1.69-1.12-2.71-1.12c-6.52,0.02-12.94,1.57-18.76,4.52c-3.53-5.23-9.43-8.36-15.74-8.35c-0.83,0-1.64,0.27-2.3,0.77
		l-13.03,9.77l-13.03-9.77c-0.66-0.5-1.47-0.77-2.3-0.77c-10.58,0.01-19.15,8.59-19.17,19.17v34.08c0,3.97,2.04,7.66,5.41,9.77
		l23.45,14.67c1.83,1.11,3.93,1.7,6.07,1.69c1.78,0,3.53-0.4,5.12-1.19l2.12-1.06v17.56c0,4.55,2.68,8.67,6.84,10.52l58.22,25.87
		c4.95,2.2,10.59,2.2,15.54,0l58.22-25.88c4.16-1.84,6.84-5.97,6.84-10.51v-21.41l2.54,1.26c3.23,1.61,7.02,1.61,10.25,0l23-11.5
		c3.91-1.93,6.39-5.92,6.38-10.29v-33.58C265.75,117.6,257.18,109.03,246.6,109.02z M72.39,180.32c-1.19,0.58-2.6,0.52-3.73-0.16
		l-23.38-14.62c-1.12-0.71-1.82-1.94-1.84-3.27v-34.08c0-5.89,4.45-10.83,10.3-11.44l14.23,10.67c1.36,1.02,3.24,1.02,4.6,0
		l14.23-10.67c3.19,0.33,6.1,1.98,8,4.56c-0.26,0.19-0.48,0.42-0.73,0.61c-0.59,0.47-1.15,0.96-1.73,1.45
		c-0.74,0.64-1.45,1.29-2.14,1.98c-0.53,0.53-1.03,1.07-1.53,1.63c-0.64,0.72-1.26,1.45-1.85,2.21c-0.45,0.58-0.89,1.15-1.31,1.77
		c-0.56,0.79-1.07,1.61-1.56,2.44c-0.38,0.62-0.74,1.24-1.08,1.88c-0.46,0.87-0.87,1.76-1.27,2.68c-0.28,0.64-0.58,1.28-0.84,1.94
		c-0.38,0.96-0.67,1.95-0.97,2.94c-0.19,0.64-0.41,1.26-0.57,1.92c-0.28,1.11-0.47,2.25-0.65,3.39c-0.09,0.56-0.23,1.11-0.3,1.67
		c-0.22,1.72-0.33,3.46-0.33,5.2v22.55L72.39,180.32z M215.93,203.7c0,1.52-0.9,2.9-2.3,3.51l-58.22,25.88
		c-2.96,1.32-6.34,1.32-9.3,0L87.9,207.21c-1.4-0.61-2.3-1.99-2.3-3.51v-48.68c0-2.95,0.37-5.88,1.11-8.74
		c3.87-14.61,16.76-25.02,31.86-25.73l29.52,29.52c1.5,1.5,3.93,1.5,5.42,0l29.52-29.52c18.4,0.88,32.88,16.04,32.91,34.47V203.7z
		 M258.1,161.76c0,1.47-0.83,2.8-2.14,3.45l-23,11.5c-1.07,0.53-2.32,0.53-3.39,0l-5.97-2.99v-18.71c0-1.74-0.11-3.49-0.33-5.22
		c-0.07-0.57-0.2-1.12-0.3-1.68c-0.19-1.15-0.38-2.27-0.65-3.38c-0.16-0.66-0.38-1.28-0.57-1.92c-0.3-0.98-0.6-1.97-0.96-2.92
		c-0.26-0.67-0.56-1.31-0.85-1.96c-0.38-0.89-0.8-1.78-1.26-2.64c-0.34-0.65-0.72-1.28-1.09-1.92c-0.49-0.82-1-1.62-1.53-2.41
		c-0.43-0.61-0.88-1.21-1.34-1.8c-0.58-0.77-1.19-1.47-1.82-2.18c-0.51-0.56-1.02-1.12-1.56-1.66c-0.67-0.68-1.38-1.32-2.11-1.95
		c-0.57-0.5-1.15-1-1.75-1.47c-0.25-0.2-0.47-0.42-0.73-0.61c1.91-2.58,4.81-4.23,8-4.56l14.22,10.67c1.36,1.02,3.24,1.02,4.6,0
		l14.23-10.67c5.86,0.61,10.3,5.55,10.3,11.44V161.76z"/>
</g>
</svg>
